# AST/ASF file generated using VICON BodyLanguage
# -----------------------------------------------
:version 1.10
:name VICON
:units
  mass 1.0
  length 0.45
  angle deg
:documentation
   .ast/.asf automatically generated from VICON data using
   VICON BodyBuilder and BodyLanguage model FoxedUp or BRILLIANT.MOD
:root
   order TX TY TZ RX RY RZ
   axis XYZ
   position 0 0 0  
   orientation 0 0 0 
:bonedata
  begin
     id 1 
     name lhipjoint
     direction 0.627457 -0.725269 0.283342 
     length 2.53237 
     axis 0 0 0  XYZ
  end
  begin
     id 2 
     name lfemur
     direction 0.34202 -0.939693 0  
     length 7.32496  
     axis 0 0 20  XYZ
    dof rx ry rz
    limits (-160.0 20.0)
           (-70.0 70.0)
           (-60.0 70.0)
  end
  begin
     id 3 
     name ltibia
     direction 0.34202 -0.939693 0   
     length 7.69674   
     axis 0 0 20   XYZ
    dof rx
    limits (-10.0 170.0)
  end
  begin
     id 4 
     name lfoot
     direction 0.127289 -0.349722 0.928166   
     length 1.8612   
     axis -90 7.62852e-016 20   XYZ
    dof rx rz
    limits (-45.0 90.0)
           (-70.0 20.0)
  end
  begin
     id 5 
     name ltoes
     direction 1.53561e-011 -4.21864e-011 1   
     length 0.925608   
     axis -90 7.62852e-016 20   XYZ
    dof rx
    limits (-90.0 20.0)
  end
  begin
     id 6 
     name rhipjoint
     direction -0.609094 -0.738725 0.288599   
     length 2.48624  
     axis 0 0 0  XYZ 
  end
  begin
     id 7 
     name rfemur
     direction -0.34202 -0.939693 0   
     length 7.44259   
     axis 0 0 -20   XYZ
    dof rx ry rz
    limits (-160.0 20.0)
           (-70.0 70.0)
           (-70.0 60.0)
  end
  begin
     id 8 
     name rtibia
     direction -0.34202 -0.939693 0   
     length 7.7781   
     axis 0 0 -20   XYZ
    dof rx
    limits (-10.0 170.0)
 end
 begin
     id 9 
     name rfoot
     direction -0.107015 -0.294021 0.949789   
     length 2.14741  
     axis -90 -7.62852e-016 -20   XYZ
    dof rx rz
    limits (-45.0 90.0)
           (-20.0 70.0)
  end
  begin
     id 10 
     name rtoes
     direction -1.53497e-011 -4.21924e-011 1   
     length 1.0706   
     axis -90 -7.62852e-016 -20   XYZ
    dof rx
    limits (-90.0 20.0)
  end
  begin
     id 11 
     name lowerback
     direction -0.0142066 0.998112 -0.0597545   
     length 1.86627   
     axis 0 0 0   XYZ
    dof rx ry rz
    limits (-20.0 45.0)
           (-30.0 30.0)
           (-30.0 30.0)
  end
  begin
     id 12 
     name upperback
     direction 0.00547294 0.999744 0.0219437   
     length 1.86272   
     axis 0 0 0   XYZ
    dof rx ry rz
    limits (-20.0 45.0)
           (-30.0 30.0)
           (-30.0 30.0)
  end
  begin
     id 13 
     name thorax
     direction 0.0116162 0.998704 0.0495538   
     length 1.8703   
     axis 0 0 0   XYZ
    dof rx ry rz
    limits (-20.0 45.0)
           (-30.0 30.0)
           (-30.0 30.0)
  end
  begin
     id 14 
     name lowerneck
     direction -0.0106574 0.998739 0.0490586   
     length 1.8074   
     axis 0 0 0   XYZ
    dof rx ry rz
    limits (-20.0 45.0)
           (-30.0 30.0)
           (-30.0 30.0)
  end
  begin
     id 15 
     name upperneck
     direction 0.030527 0.976587 -0.212944   
     length 1.80681   
     axis 0 0 0   XYZ
    dof rx ry rz
    limits (-20.0 45.0)
           (-30.0 30.0)
           (-30.0 30.0)
  end
  begin
     id 16
     name head
     direction 0.00869225 0.997035 -0.0764531  
     length 1.8313  
     axis 0 0 0   XYZ
    dof rx ry rz
    limits (-20.0 45.0)
           (-30.0 30.0)
           (-30.0 30.0)
  end
  begin
     id 17 
     name lclavicle
     direction 0.915958 0.399447 0.0382386  
     length 3.78965  
     axis 0 0 0   XYZ
    dof ry rz
    limits (-20.0 10.0)
           (0.0 20.0)
  end
  begin
     id 18 
     name lhumerus
     direction 1 -4.48967e-011 3.19303e-027   
     length 4.78095   
     axis -180 -30 -90   XYZ
    dof rx ry rz
    limits (-60.0 90.0)
           (-90.0 90.0)
           (-90.0 90.0)
  end
  begin
     id 19
     name lradius
     direction 1 -4.48967e-011 -3.77974e-027   
     length 3.58615   
     axis -180 -30 -90   XYZ
    dof rx
    limits (-10.0 170.0)
  end
  begin
     id 20
     name lwrist
     direction 1 -4.48927e-011 1.2807e-027   
     length 1.79307   
     axis 1.91374e-015 90 90   XYZ
    dof ry
    limits (-180.0 0.0)
 end
  begin
     id 21 
     name lhand
     direction 1 -4.49036e-011 2.5614e-027   
     length 0.659812   
     axis -1.63439e-015 90 90   XYZ
    dof rx rz
    limits (-90.0 90.0)
           (-45.0 45.0)
  end
  begin
     id 22 
     name lfingers
     direction 1 -4.49052e-011 5.1228e-027   
     length 0.531957   
     axis -3.26879e-015 90 90   XYZ
    dof rx
    limits (0.0 90.0)
  end
  begin
     id 23
     name lthumb
     direction 0.707107 -6.35012e-011 0.707107   
     length 0.763787   
     axis -90 45 2.85299e-015   XYZ
    dof rx rz
    limits (-45.0 45.0)
           (-45.0 45.0)
  end
  begin
     id 24 
     name rclavicle
     direction -0.895351 0.435135 0.0948887   
     length 3.70497  
     axis 0 0 0   XYZ 
    dof ry rz
    limits (-10.0 20.0)
           (-20.0 0.0)
  end
  begin
     id 25 
     name rhumerus
     direction -1 -4.48971e-011 2.38946e-027  
     length 4.48913   
     axis -180 30 90   XYZ
    dof rx ry rz
    limits (-90.0 60.0)
           (-90.0 90.0)
           (-90.0 90.0)
  end
  begin
     id 26 
     name rradius
     direction -1 -4.4895e-011 4.38668e-027   
     length 3.7051   
     axis -180 30 90   XYZ
    dof rx
    limits (-10.0 170.0)
  end
  begin
     id 27 
     name rwrist
     direction -1 -4.49007e-011 1.2807e-027   
     length 1.85255   
     axis 1.91374e-015 -90 -90   XYZ
    dof ry
    limits (-180.0 0.0)
  end
  begin
     id 28
     name rhand
     direction -1 -4.48851e-011 2.5614e-027   
     length 0.449136   
     axis -1.63439e-015 -90 -90   XYZ
    dof rx rz
    limits (-90.0 90.0)
           (-45.0 45.0)
  end
  begin
     id 29
     name rfingers
     direction -1 -4.49128e-011 5.1228e-027   
     length 0.362105   
     axis -3.26879e-015 -90 -90   XYZ
    dof rx
    limits (0.0 90.0)
  end
  begin
     id 30
     name rthumb
     direction -0.707107 -6.34851e-011 0.707107   
     length 0.519912   
     axis -90 -45 -2.85299e-015   XYZ
    dof rx rz
    limits (-45.0 45.0)
           (-45.0 45.0)
  end
:hierarchy
  begin
    root lhipjoint rhipjoint lowerback
    lhipjoint lfemur
    lfemur ltibia
    ltibia lfoot
    lfoot ltoes
    rhipjoint rfemur
    rfemur rtibia
    rtibia rfoot
    rfoot rtoes
    lowerback upperback
    upperback thorax
    thorax lowerneck lclavicle rclavicle
    lowerneck upperneck
    upperneck head
    lclavicle lhumerus
    lhumerus lradius
    lradius lwrist
    lwrist lhand lthumb
    lhand lfingers
    rclavicle rhumerus
    rhumerus rradius
    rradius rwrist
    rwrist rhand rthumb
    rhand rfingers
  end

#!OML:ASF I:\Actors\actors\Patient Classification 2\Patient 1\Session 1\actor1.ASF
:FULLY-SPECIFIED
:DEGREES
41
root -0.71565 18.6615 5.86533 1.47656 -1.07482 -5.13596
lowerback 2.20964 0.703974 1.74375
upperback -2.34144 1.03835 0.900368
thorax -3.6336 0.483761 -0.105711
lowerneck -11.0706 -0.997631 -0.0622252
upperneck 20.3008 -1.92528 2.57258
head 8.1371 -0.665753 0.668266
rclavicle 2.48481e-016 3.97569e-015
rhumerus -50.8633 -2.29198 -83.7891
rradius 43.9829
rwrist 14.2833
rhand -0.32052 -37.1274
rfingers 7.12502
rthumb 25.2833 -65.4719
lclavicle 2.48481e-016 3.97569e-015
lhumerus -47.702 3.54942 82.2905
lradius 45.0992
lwrist -3.93756
lhand -4.3145 -25.9404
lfingers 7.12502
lthumb 21.4519 2.89185
rfemur 7.33878 4.44819 19.4365
rtibia 0
rfoot -17.9167 -11.9765
rtoes -11.7757
lfemur -6.18083 -5.01876 -8.73324
ltibia 24.6581
lfoot -22.8266 9.91132
ltoes -56.3228
42
root -0.716108 18.6613 5.86633 1.49634 -1.04536 -5.13621
lowerback 2.21805 0.683648 1.74671
upperback -2.3429 1.01127 0.891428
thorax -3.64004 0.470012 -0.115263
lowerneck -11.0295 -0.966046 -0.0293072
upperneck 20.3266 -1.88323 2.54897
head 8.13708 -0.645687 0.659441
rclavicle -2.68359e-015 -1.19271e-015
rhumerus -50.8471 -2.28657 -83.8143
rradius 43.9346
rwrist 14.2486
rhand -0.296371 -37.1588
rfingers 7.12502
rthumb 25.3065 -65.5
lclavicle -2.68359e-015 -1.19271e-015
lhumerus -47.7466 3.60573 82.2348
lradius 45.11
lwrist -3.98804
lhand -4.39383 -26.0737
lfingers 7.12502
lthumb 21.3757 2.76723
rfemur 7.32848 4.41845 19.438
rtibia -9.54166e-015
rfoot -17.9366 -11.9559
rtoes -11.6257
lfemur -6.20543 -5.02266 -8.72394
ltibia 24.6608
lfoot -22.8483 9.84854
ltoes -56.2263
43
root -0.715868 18.6604 5.86819 1.50026 -1.02325 -5.15615
lowerback 2.20287 0.677162 1.77823
upperback -2.32216 1.00323 0.896823
thorax -3.6097 0.46557 -0.126602
lowerneck -10.9888 -0.950402 0.021719
upperneck 20.322 -1.85269 2.4637
head 8.12632 -0.636053 0.625842
rclavicle -3.3048e-015 6.36111e-015
rhumerus -50.8415 -2.29405 -83.8196
rradius 43.9404
rwrist 14.2199
rhand -0.31951 -37.1447
rfingers 7.12502
rthumb 25.2843 -65.489
lclavicle -3.3048e-015 6.36111e-015
lhumerus -47.768 3.63139 82.2468
lradius 45.1268
lwrist -4.02646
lhand -4.48275 -26.1638
lfingers 7.12502
lthumb 21.2903 2.6868
rfemur 7.33666 4.39687 19.4563
rtibia 1.27222e-014
rfoot -17.9696 -11.9032
rtoes -11.3452
lfemur -6.21705 -5.0351 -8.70125
ltibia 24.6676
lfoot -22.8309 9.85594
ltoes -56.2099
44
root -0.715658 18.6607 5.87007 1.52181 -0.993771 -5.17495
lowerback 2.18464 0.686224 1.81403
upperback -2.31404 1.01622 0.900759
thorax -3.5903 0.471344 -0.142972
lowerneck -10.9936 -0.955704 0.100929
upperneck 20.3563 -1.84767 2.32959
head 8.13653 -0.640344 0.568575
rclavicle 5.62809e-015 1.31198e-014
rhumerus -50.8261 -2.35229 -83.7928
rradius 43.9419
rwrist 14.2125
rhand -0.323221 -37.0967
rfingers 7.12502
rthumb 25.2807 -65.4416
lclavicle 5.62809e-015 1.31198e-014
lhumerus -47.7797 3.59061 82.3001
lradius 45.1408
lwrist -4.00587
lhand -4.52094 -26.1985
lfingers 7.12502
lthumb 21.2536 2.65626
rfemur 7.31881 4.36774 19.4729
rtibia -1.90833e-014
rfoot -17.9656 -11.9012
rtoes -11.3521
lfemur -6.25531 -5.04588 -8.68155
ltibia 24.6794
lfoot -22.774 9.90497
ltoes -56.311
45
root -0.715594 18.6612 5.87164 1.54398 -0.962238 -5.18217
lowerback 2.20334 0.684918 1.83935
upperback -2.32485 1.01604 0.896583
thorax -3.6116 0.470312 -0.161746
lowerneck -11.0346 -0.958035 0.160438
upperneck 20.4509 -1.84687 2.24303
head 8.17425 -0.642571 0.529872
rclavicle -1.09829e-014 3.18055e-015
rhumerus -50.8145 -2.38698 -83.7837
rradius 43.9372
rwrist 14.2154
rhand -0.333588 -37.0352
rfingers 7.12502
rthumb 25.2708 -65.3815
lclavicle -1.09829e-014 3.18055e-015
lhumerus -47.7766 3.56475 82.3296
lradius 45.111
lwrist -3.98545
lhand -4.53341 -26.1563
lfingers 7.12502
lthumb 21.2417 2.69979
rfemur 7.30132 4.33617 19.48
rtibia 1.59028e-014
rfoot -17.9602 -11.916
rtoes -11.4164
lfemur -6.28556 -5.02854 -8.66955
ltibia 24.6849
lfoot -22.7487 9.8981
ltoes -56.423
